<svg width="56" height="56" viewBox="0 0 56 56" fill="none" xmlns="http://www.w3.org/2000/svg">
<g clip-path="url(#clip0_9712_49047)">
<path d="M48.4531 32.7169C47.0895 30.9651 44.8453 29.1186 41.1051 27.5468C41.9573 27.2722 43.0652 27.007 44.192 27.007C48.775 27.007 48.7845 31.2776 48.4531 32.7169ZM49.2011 32.2056C49.2011 32.2056 50.0249 26.3347 44.2015 26.3347C41.6732 26.3347 39.287 27.5563 39.287 27.5563C51.1328 31.7889 49.7503 38.815 49.7503 38.815C36.9955 30.9272 28.7669 38.5972 26.3428 41.4379L25.216 45.7842H29.2309C34.8081 45.7842 36.1338 40.652 36.7114 38.3983H44.1446L39.2397 53.8802H3.24778L5.34044 45.7842H7.71718C9.87612 45.7842 10.4632 43.5495 10.4632 43.5495L15.5007 24.0716C9.34586 19.2519 2.79327 18.7311 2.79327 18.7311C7.16797 16.8752 11.4006 15.4643 15.5576 14.8488L13.5028 13.5515C13.5028 13.5515 15.4155 13.2296 18.3509 13.0307L18.9664 10.635H14.4213L16.5234 2.539H40.9252L38.8325 10.6445H34.9407C34.5051 10.6729 34.2305 10.8528 34.0127 11.6956L33.9465 11.9702C44.8643 12.8887 49.684 16.9698 49.684 16.9698C48.0743 21.1646 54.5701 18.6459 55.2329 23.1437C56.0851 27.3953 50.9813 30.8515 49.1916 32.215M55.9999 24.1095C55.9999 17.6043 48.2921 20.8143 50.4794 16.7615C45.0347 12.2637 34.8366 11.3831 34.8366 11.3831L34.8934 11.3073H39.3438L41.7868 1.8667H15.9931L13.5501 11.3073H18.0953L17.8112 12.3963C14.9231 12.5667 11.6468 13.1822 11.6468 13.1822L13.7395 14.5079C8.41789 15.5495 3.96743 17.5001 -0.019043 19.1856C-0.019043 19.1856 7.60355 18.9773 14.7243 24.3462L9.80037 43.3885C9.78143 43.4548 9.31745 45.1119 7.70771 45.1119H4.81018L2.36716 54.5525H39.7037L45.0347 37.726H36.1622C35.4994 40.8129 33.9654 45.1119 29.2025 45.1119H26.0587L26.9204 41.7693C29.0226 39.2789 37.1659 31.3155 50.1954 39.8944C51.1896 36.656 48.8602 33.285 48.8602 33.285C52.146 30.9935 55.9904 27.8687 55.9904 24.1095" fill="white"/>
<path d="M42.8477 52.3558H42.4784V52.0149H42.8477C42.9424 52.0149 43.0181 52.0906 43.0181 52.1853C43.0181 52.28 42.9424 52.3558 42.8477 52.3558ZM43.3212 52.1758C43.3212 51.9202 43.1128 51.7024 42.8572 51.7024H42.1943V53.2837H42.4879V52.6398H42.6962L42.9992 53.2837H43.3306L43.0181 52.6114C43.1981 52.5451 43.3306 52.3747 43.3306 52.1664" fill="white"/>
<path d="M42.7526 53.5867C42.1561 53.5867 41.6637 53.1037 41.6637 52.4977C41.6637 51.8917 42.1466 51.4088 42.7526 51.4088C43.3586 51.4088 43.8415 51.8917 43.8415 52.4977C43.8415 53.1037 43.3586 53.5867 42.7526 53.5867ZM42.7526 51.1152C41.9856 51.1152 41.3701 51.7307 41.3701 52.4977C41.3701 53.2647 41.9856 53.8802 42.7526 53.8802C43.5196 53.8802 44.1351 53.2647 44.1351 52.4977C44.1351 51.7307 43.5196 51.1152 42.7526 51.1152Z" fill="white"/>
<path d="M37.0621 22.0264C37.0621 22.1021 37.0621 22.1684 37.0526 22.2442C36.6739 22.14 36.2951 22.0453 35.9353 21.9601C34.9978 21.7423 34.2403 21.6287 34.2403 21.6287C34.2403 21.6287 34.8085 21.7707 35.8785 22.5093C36.1531 22.7081 36.475 22.9449 36.8159 23.2289C36.3519 24.3084 35.2724 25.0754 34.0225 25.0754C32.3465 25.0754 30.983 23.7119 30.983 22.0358C30.983 20.8901 31.6174 19.8958 32.5454 19.375C32.0814 19.2235 31.6174 19.1004 31.1629 19.0057C30.358 19.7633 29.8467 20.8427 29.8467 22.0358C29.8467 24.3368 31.7121 26.2117 34.0131 26.2117C34.3918 26.2117 34.7611 26.1549 35.1115 26.0602C35.2914 26.0128 35.4618 25.956 35.6228 25.8897C36.9674 25.3216 37.9427 24.0812 38.1321 22.585C37.7723 22.2536 37.403 21.9506 37.0148 21.6571C37.0337 21.7802 37.0432 21.9127 37.0432 22.0453" fill="white"/>
<path d="M28.6061 48.1609H22.2145L24.7238 38.4362C23.1614 32.7169 20.4438 28.6547 17.4421 25.7666L12.5372 44.7331C12.5372 44.7331 11.6471 48.1609 7.10192 48.1609L6.24023 51.5035H37.6017L41.0011 40.7751H38.3214C38.3214 40.7751 36.0772 48.1609 28.6061 48.1609Z" fill="#C1A875"/>
<path d="M21.0781 11.6955L20.7562 12.9265C23.0666 12.8602 25.7558 12.9265 28.5492 13.2485L26.305 11.8755C28.1988 11.7713 29.9601 11.7713 31.5982 11.8281L31.6361 11.6955C32.5262 8.26775 35.49 8.26775 35.49 8.26775H37.0619L37.9236 4.92517H18.2753L17.4136 8.26775H18.9854C18.9854 8.26775 21.9587 8.26775 21.0686 11.6955" fill="#C1A875"/>
<path d="M52.9321 23.0016C52.2409 20.4923 47.0424 22.1305 44.4195 23.2383C43.5483 23.1626 42.431 23.3046 42.431 23.3046C43.6146 21.7706 45.6788 20.1041 47.762 19.4507C44.8172 18.4849 42.6677 20.8995 40.8117 22.8028C39.3535 24.3652 37.5355 25.2079 35.6416 25.8707C35.4712 25.9465 35.3008 25.9938 35.1208 26.0412C32.3275 26.9597 29.4205 27.5752 27.271 29.5731C31.3427 31.306 35.1682 32.357 39.4293 32.982C43.1885 33.5312 46.0576 35.0368 47.8188 36.0216C44.0312 31.4007 34.9031 31.7889 29.3637 29.4311C36.0772 26.0601 42.7056 24.1095 48.1787 25.3783C49.5422 25.8991 50.1293 27.4331 50.5081 28.6357C52.1746 27.3006 53.3867 24.6587 52.9227 22.9827" fill="#C1A875"/>
<path d="M35.2346 29.1186C36.6076 29.7341 38.5582 30.4348 40.4615 30.6431L36.5981 28.9197C36.2004 28.6925 35.4524 28.7209 35.2251 29.1186" fill="#863A20"/>
<path d="M31.6079 13.7504L33.1324 15.3696C29.6762 14.5174 23.5971 14.9719 19.0141 15.7294C14.5163 16.468 9.5166 18.7311 9.5166 18.7311C23.9759 21.5718 26.6935 38.1995 26.6935 38.1995C26.6935 38.1995 28.9187 34.8758 34.0509 33.8153C31.6742 32.4802 27.2048 31.1734 24.6671 30.9367C25.3394 28.257 27.9813 26.8555 29.8751 25.8139C29.8751 25.8139 28.2937 24.6114 28.2937 21.8938C28.2937 21.0984 28.2937 19.6212 29.4774 18.7311C28.0854 18.5985 26.9018 18.7406 26.1916 19.1099C26.1916 19.1099 31.5132 13.5042 40.31 20.445C40.31 20.445 41.9671 17.7084 44.9309 16.9036C44.9309 16.9036 42.0144 13.9492 31.6079 13.7598" fill="#863A20"/>
<path d="M34.0225 23.9485C32.9619 23.9485 32.1003 23.0868 32.1003 22.0263C32.1003 20.9658 32.9619 20.1041 34.0225 20.1041C34.2687 20.1041 34.4959 20.1514 34.7137 20.2366C33.9941 19.8863 33.265 19.5927 32.5453 19.3655C31.6079 19.8863 30.9829 20.8805 30.9829 22.0263C30.9829 23.7118 32.3465 25.0659 34.0225 25.0659C35.2724 25.0659 36.3519 24.3083 36.8158 23.2194C36.4655 22.9353 36.153 22.6986 35.8784 22.4997C35.6606 23.3235 34.922 23.939 34.0225 23.939" fill="#006937"/>
<path d="M37.0336 21.638C36.3897 21.1646 35.7269 20.7574 35.0356 20.3976C35.5564 20.729 35.9068 21.2971 35.9352 21.9505C36.295 22.0357 36.6738 22.1304 37.0526 22.2346C37.0526 22.1588 37.062 22.0925 37.062 22.0168C37.062 21.8842 37.0526 21.7611 37.0336 21.6286" fill="#006937"/>
<path d="M48.1976 25.3973C42.715 24.1285 36.0961 26.0696 29.3826 29.4501C34.922 31.7984 44.0501 31.4196 47.8378 36.0405C46.0765 35.0558 43.2074 33.5502 39.4482 33.001C35.1776 32.376 31.3616 31.3155 27.2899 29.5826C29.4394 27.5847 32.3464 26.9692 35.1398 26.0507C34.7894 26.1454 34.4201 26.2022 34.0413 26.2022C31.7404 26.2022 29.8655 24.3368 29.8655 22.0263C29.8655 20.8332 30.3673 19.7538 31.1817 18.9962C31.6362 19.0909 32.0907 19.2235 32.5642 19.3655C33.2838 19.5928 34.0129 19.8863 34.7326 20.2367C34.5148 20.1515 34.2875 20.1041 34.0413 20.1041C32.9808 20.1041 32.1191 20.9658 32.1191 22.0263C32.1191 23.0869 32.9808 23.9485 34.0413 23.9485C34.9409 23.9485 35.6795 23.3331 35.8973 22.5093C34.8273 21.7612 34.2591 21.6286 34.2591 21.6286C34.2591 21.6286 35.0167 21.7517 35.9541 21.96C35.9352 21.3067 35.5848 20.7291 35.064 20.4071C35.7458 20.7575 36.4181 21.1741 37.062 21.6476C37.4502 21.9316 37.8195 22.2441 38.1793 22.5755C37.9899 24.0716 37.0052 25.3121 35.67 25.8802C37.5638 25.2269 39.3819 24.3841 40.8401 22.8123C42.6961 20.8995 44.8455 18.4944 47.7904 19.4602C45.7167 20.1136 43.643 21.7801 42.4593 23.3141C42.4593 23.3141 43.5767 23.1721 44.4478 23.2478C47.0708 22.14 52.2693 20.5018 52.9605 23.0111C53.415 24.6871 52.2125 27.329 50.5459 28.6641C50.1766 27.4521 49.5801 25.9181 48.2165 25.4068M40.4614 30.6432C38.5581 30.4349 36.6075 29.7341 35.2344 29.1187C35.4617 28.721 36.2098 28.6925 36.6075 28.9198L40.4708 30.6432H40.4614ZM26.7028 38.1995C26.7028 38.1995 23.9852 21.5718 9.52596 18.7311C9.52596 18.7311 14.5161 16.468 19.0234 15.7294C23.6064 14.9719 29.6761 14.5174 33.1418 15.3696L31.6173 13.7504C42.0238 13.9398 44.9402 16.8941 44.9402 16.8941C41.9669 17.699 40.3193 20.4355 40.3193 20.4355C31.5226 13.5042 26.201 19.1004 26.201 19.1004C26.9206 18.7311 28.0948 18.5985 29.4867 18.7216C28.3031 19.6117 28.3031 21.0889 28.3031 21.8843C28.3031 24.5924 29.8844 25.8045 29.8844 25.8045C27.9906 26.8461 25.3487 28.2475 24.6764 30.9272C27.2142 31.164 31.6835 32.4612 34.0603 33.8058C28.9281 34.8758 26.7028 38.1995 26.7028 38.1995ZM28.6061 48.1609C36.0772 48.1609 38.3214 40.7751 38.3214 40.7751H41.0011L37.6017 51.5035H6.24966L7.11135 48.1609C11.6565 48.1609 12.5466 44.7331 12.5466 44.7331L17.4516 25.7666C20.4532 28.6547 23.1709 32.7264 24.7333 38.4362L22.224 48.1609H28.6156H28.6061ZM17.4231 8.25832L18.2848 4.91574H37.9331L37.0714 8.25832H35.4996C35.4996 8.25832 32.5263 8.25832 31.6457 11.6861L31.6173 11.8187C29.9696 11.7524 28.2084 11.7619 26.3241 11.866L28.5682 13.239C25.7749 12.9171 23.0951 12.8603 20.7752 12.9171L21.0971 11.6861C21.9872 8.25832 19.0139 8.25832 19.0139 8.25832H17.4421H17.4231ZM55.2331 23.1342C54.5797 18.6364 48.0745 21.1552 49.6842 16.9604C49.6842 16.9604 44.8645 12.8792 33.9466 11.9607L34.0129 11.6861C34.2307 10.8434 34.5053 10.6635 34.9409 10.6351H38.8327L40.9253 2.52954H16.5236L14.4309 10.6351H18.9761L18.3606 13.0307C15.4157 13.2201 13.503 13.5515 13.503 13.5515L15.5577 14.8488C11.4008 15.4643 7.16816 16.8752 2.79346 18.7311C2.79346 18.7311 9.33658 19.2519 15.5009 24.0716L10.4634 43.5495C10.4634 43.5495 9.88578 45.7747 7.71737 45.7747H5.34063L3.24797 53.8802H39.2304L44.1354 38.3983H36.7021C36.1151 40.652 34.7989 45.7842 29.2216 45.7842H25.2067L26.3335 41.4379C28.7671 38.5972 36.9862 30.9272 49.741 38.815C49.741 38.815 51.1235 31.7889 39.2777 27.5563C39.2777 27.5563 41.6639 26.3348 44.1922 26.3348C50.0156 26.3348 49.1918 32.2056 49.1918 32.2056C50.9815 30.8515 56.0758 27.3953 55.2331 23.1342Z" fill="#653819"/>
</g>
<defs>
<clipPath id="clip0_9712_49047">
<rect width="56" height="52.6858" fill="white" transform="translate(0 1.8667)"/>
</clipPath>
</defs>
</svg>
